<svg width="1054" height="543" viewBox="0 0 1054 543" fill="none" xmlns="http://www.w3.org/2000/svg">
<g clip-path="url(#clip0_118:42)">
<g clip-path="url(#clip1_118:42)">
<path d="M248.732 56.2177C248.358 53.2643 247.603 50.3719 246.484 47.6131C246.342 47.0914 246.092 46.6051 245.751 46.1852C245.41 45.7654 244.986 45.4211 244.504 45.1743C243.861 45.0071 243.186 44.9995 242.54 45.1523L232.452 46.6958C231.608 46.7344 230.8 47.0485 230.151 47.5901C228.837 48.9718 230.131 51.1967 230.09 53.1029C230.045 55.2463 228.141 56.9862 226.075 57.5618C223.967 57.9878 221.793 57.9608 219.696 57.4827L205.591 55.2908C209.745 53.9646 213.442 51.4971 216.261 48.1701C218.117 45.9712 219.105 41.8659 216.422 40.8246C215.625 40.6059 214.794 40.5391 213.973 40.6279C207.582 40.6776 202.553 35.3419 196.57 33.0947C192.741 31.7494 188.585 31.6493 184.696 32.8087C180.806 33.9682 177.383 36.3277 174.916 39.5501L182.43 39.9123C183.137 39.8733 183.838 40.0603 184.431 40.4461C186.078 41.7991 184.031 44.3978 184.263 46.5164C184.564 49.2688 188.219 49.8565 190.974 50.1349C193.729 50.4132 197.224 52.6515 195.898 55.0828C182.052 59.8522 167.961 45.7596 153.419 47.4944C149.739 47.9334 146.264 49.3793 142.67 50.2885C120.719 55.8423 98.0263 41.0241 75.6024 44.1623C70.6173 45.0121 65.7178 46.3043 60.9619 48.0235C57.91 49.0256 54.7267 50.1085 52.5091 52.4325C50.2916 54.7565 49.4477 58.731 51.5484 61.1611C45.7582 61.6379 39.9293 61.0838 34.3326 59.5246C35.8461 60.3659 37.1052 61.5991 37.9777 63.0947C38.8502 64.5904 39.3039 66.2934 39.2913 68.0249C30.2506 69.4991 21.4493 72.1828 13.1241 76.0036C14.6779 78.5875 16.4927 81.0051 18.5401 83.2184L7.09473 90.5714C10.9615 91.5457 12.9607 96.8184 10.7121 100.111C14.7215 98.3278 17.2063 93.7136 21.4937 92.7781C24.3025 92.1652 27.1606 93.3142 29.8252 94.3936C32.4897 95.473 35.4184 96.5197 38.1768 95.7095C40.9352 94.8994 42.9698 91.3227 41.217 89.0439C53.0072 85.6039 65.1922 83.7002 77.4698 83.38C78.417 83.2611 79.3775 83.4434 80.2153 83.901C81.8136 85.0099 81.3931 87.4048 81.307 89.3482C81.2209 91.2915 82.7355 93.8455 84.4724 92.9696C82.429 94.7415 84.1758 98.0772 86.1362 99.9405C88.0966 101.804 90.4595 104.375 89.2593 106.799C88.9461 107.431 88.4148 107.937 88.1134 108.576C87.2237 110.46 88.6362 112.656 90.3024 113.908C91.9685 115.159 94.0093 116.033 95.1666 117.766C96.324 119.499 95.7984 122.532 93.7289 122.773L87.8465 115.305C85.8368 117.389 84.4589 120 83.8729 122.835C90.1106 127.934 91.0489 138.313 85.8267 144.448C83.158 147.584 79.3629 149.489 76.0507 151.934C72.7384 154.38 69.6735 157.862 69.6818 161.979C69.6962 169.092 69.115 175.701 71.7805 182.295C76.6956 194.456 82.3703 206.295 88.7709 217.743C90.4518 220.749 92.6241 224.044 96.0291 224.562C91.7258 214.085 87.852 203.446 84.4077 192.644C86.651 192.653 89.2435 192.831 90.5587 194.649C91.6477 196.154 91.4137 198.2 91.7521 200.026C92.1825 201.796 92.9002 203.483 93.8766 205.021L114.426 241.626C116.13 244.66 118.084 247.917 121.339 249.146C123.421 249.932 125.829 249.784 127.745 250.915C129.247 251.802 130.258 253.375 131.789 254.211C136.118 256.572 142.138 252.043 146.183 254.863C147.34 255.669 148.076 256.95 149.142 257.873C152.878 261.108 159.007 258.944 163.32 261.357C166.1 262.913 167.541 266.024 169.023 268.843C172.737 275.905 178.747 282.824 186.706 283.386C189.206 283.563 191.76 283.089 194.204 283.645C196.648 284.201 199.054 286.334 198.661 288.81C197.989 293.054 200.086 297.701 199.522 301.961C198.497 309.72 187.49 313.13 186.545 320.9C186.338 322.601 186.662 324.357 186.257 326.022C185.76 328.063 184.228 329.724 183.683 331.753C182.651 335.597 185.405 339.423 188.431 342.009C191.456 344.596 195.065 346.826 196.72 350.446C198.468 354.273 197.609 358.735 198.178 362.903C199.419 372.003 207.279 378.75 215.369 383.1C217.833 384.425 220.479 385.708 222.075 388.007C224.157 391.008 223.949 394.964 224.645 398.55C226.347 407.332 233.74 414.567 233.95 423.51C234.099 429.866 230.566 435.632 228.455 441.63C226.476 447.376 225.76 453.481 226.356 459.529C226.951 465.577 228.844 471.425 231.906 476.675C233.485 479.341 235.373 481.855 236.49 484.745C238.483 489.903 237.836 495.765 239.674 500.98C242.104 507.875 248.78 513.57 248.141 520.852C251.172 527.146 257.864 530.239 264.594 532.112L276.656 535.469C278.965 536.112 281.379 536.76 283.73 536.295C286.082 535.829 288.326 533.877 288.266 531.48C282.351 530.146 276.246 528.728 271.371 525.123C266.495 521.519 263.155 515.101 265.005 509.326C265.862 506.649 267.687 503.557 265.952 501.344C264.959 500.078 263.142 499.747 262.022 498.591C260.274 496.788 260.875 493.76 262.131 491.586C263.388 489.412 265.204 487.47 265.71 485.011C265.966 483.635 265.795 482.214 265.221 480.938C264.646 479.662 263.695 478.593 262.495 477.873C264.731 477.028 266.765 475.723 268.465 474.042C270.035 472.249 270.76 469.485 269.525 467.447C273.192 467.912 277.522 468.14 279.93 465.334C281.852 463.094 281.72 459.745 280.961 456.892C280.201 454.039 278.917 451.268 278.877 448.317C287.337 448.718 295.816 448.43 304.23 447.457C303.013 443.359 300.248 439.897 296.522 437.803C300.332 437.159 303.804 432.597 305.008 428.924C306.212 425.252 305.905 421.251 305.161 417.459C304.875 416.483 304.836 415.451 305.047 414.455C305.476 413.088 306.819 412.253 308.062 411.54L326.976 400.677C328.105 400.111 329.128 399.356 330.001 398.444C331.983 396.116 331.689 392.602 330.674 389.719C329.66 386.835 328.034 384.123 327.643 381.092C326.474 372.024 336.181 365.518 339.457 356.982C340.742 353.633 341.004 349.992 341.253 346.412C341.52 342.568 341.54 338.103 338.589 335.625C335.759 333.251 331.338 333.781 328.377 331.572C325.663 329.546 324.726 325.613 321.761 323.978C319.068 322.492 315.691 323.437 312.696 322.738C307.422 321.508 304.104 315.43 298.718 314.867C295.679 314.55 292.24 316.035 289.749 314.266C287.555 312.706 287.467 309.572 287.049 306.912C286.317 302.779 284.336 298.969 281.372 295.996C278.409 293.023 274.605 291.029 270.474 290.284C267.341 289.782 263.931 289.972 261.265 288.251C258.566 286.507 257.329 283.243 255.209 280.828C251.792 276.937 246.41 275.554 241.369 274.369L220.863 269.549C217.223 268.693 212.531 268.239 210.578 271.428C210 272.642 209.59 273.929 209.361 275.254C208.629 277.651 207.156 279.755 205.154 281.262C203.151 282.769 200.723 283.603 198.217 283.643C196.498 280.711 193.714 278.557 190.445 277.629C188.366 277.05 186.14 276.985 184.157 276.133C183.077 275.606 182.116 274.864 181.333 273.952C180.549 273.041 179.96 271.979 179.602 270.832C179.243 269.685 179.122 268.477 179.246 267.282C179.371 266.086 179.738 264.929 180.325 263.88C181.507 261.775 181.963 259.34 181.624 256.95C181.284 254.56 180.168 252.348 178.446 250.655C174.959 247.524 169.914 246.768 165.238 247.081C164.014 244.409 166.061 241.394 168.268 239.452C170.475 237.511 173.154 235.601 173.635 232.702C174.39 228.14 168.57 224.676 164.151 226.036C159.732 227.396 156.912 231.688 155.047 235.919C153.977 238.347 153.068 240.903 151.38 242.95C149.693 244.997 146.976 246.463 144.405 245.806C140.767 244.876 139.361 240.553 138.556 236.884C137.475 231.963 136.389 226.973 136.615 221.939C136.841 216.905 138.538 211.736 142.25 208.328C148.299 202.775 157.578 203.32 165.742 204.205C163.813 202.032 164.29 198.37 166.353 196.325C167.443 195.357 168.752 194.67 170.167 194.322C171.582 193.974 173.06 193.977 174.474 194.33C176.934 194.842 179.15 196.167 180.765 198.091C183.085 200.92 183.745 204.738 185.498 207.949C187.252 211.159 191.194 213.897 194.421 212.175C197.209 210.687 197.651 206.822 196.958 203.74C196.264 200.657 194.79 197.66 195.042 194.51C195.521 188.501 201.751 184.883 207.248 182.408C212.745 179.933 219.04 176.605 219.911 170.639C219.941 169.471 220.161 168.316 220.563 167.219C221.173 166.25 222.02 165.453 223.025 164.904C239.069 154.302 255.379 143.569 273.717 137.776C274.671 137.474 274.783 137.809 275.755 137.573C277.116 136.787 276.214 134.611 274.91 133.735C273.605 132.858 271.861 132.186 271.53 130.65C271.287 129.52 271.952 128.411 272.125 127.269C272.55 124.462 269.192 121.87 266.584 122.993C265.111 121.042 268.026 118.775 270.383 118.126C277.46 116.179 284.724 114.992 292.053 114.586C292.899 114.452 293.765 114.599 294.519 115.006C295.75 115.858 295.593 117.814 294.72 119.031C293.848 120.248 292.491 121.012 291.404 122.042C290.216 123.199 289.369 124.66 288.955 126.266C288.541 127.871 288.576 129.56 289.056 131.147C292.882 133.093 297.041 135.097 301.279 134.411C305.516 133.725 309.277 128.964 307.285 125.162C305.431 121.621 299.859 120.822 298.901 116.941C297.779 112.397 304.211 108.356 302.763 103.906C302.128 101.957 300.185 100.809 298.694 99.402C296.934 97.6765 295.736 95.4588 295.259 93.0403C294.782 90.6218 295.047 88.1155 296.02 85.8504C293.592 86.2776 291.097 86.1163 288.744 85.38C286.391 84.6436 284.249 83.3539 282.497 81.6188C279.263 78.3545 276.682 73.2052 272.089 73.3513C267.875 73.4853 264.244 78.4026 260.303 76.9024C259.333 76.5333 258.311 75.7821 257.372 76.2223C257.064 76.4222 256.805 76.6894 256.616 77.0039C256.427 77.3183 256.311 77.6717 256.278 78.0373C255.277 82.8257 257 88.2814 254.39 92.4192C251.55 96.9218 244.981 97.5461 241.538 101.606C239.669 103.81 238.945 106.78 237.227 109.104C235.51 111.428 231.863 112.905 229.802 110.88C230.815 108.797 231.092 106.432 230.587 104.172C230.082 101.911 228.825 99.8888 227.022 98.4352C225.108 97.1864 223.044 96.1829 220.88 95.448C218.462 94.4245 216.162 93.1425 214.02 91.6243C212.946 90.9769 212.074 90.0439 211.501 88.9294C211.047 87.5339 211.108 86.0221 211.673 84.6677C212.719 81.6706 214.563 79.0159 217.007 76.9903C219.45 74.9647 222.401 73.6451 225.54 73.174C228.285 72.8006 231.48 72.9322 233.296 70.8407C234.258 69.7341 234.762 68.0611 236.157 67.6116C237.049 67.4323 237.976 67.5464 238.798 67.9369L249.043 71.543C250.186 72.0591 251.445 72.2672 252.693 72.1467C253.312 72.0633 253.877 71.7489 254.274 71.2666C254.67 70.7843 254.87 70.1697 254.833 69.5462C254.505 67.8448 251.887 67.0284 252.126 65.3122C252.259 64.7561 252.558 64.2535 252.983 63.8709C256.681 59.9355 261.202 56.8663 266.225 54.883C271.247 52.8997 276.646 52.0513 282.034 52.3986C283.328 54.5224 281.282 57.0374 279.581 58.8504C277.879 60.6634 276.512 63.9029 278.569 65.2985C279.413 65.7289 280.351 65.9402 281.297 65.9128C283.82 66.2542 286.271 66.9978 288.558 68.1151C292.099 69.6558 295.571 71.3416 298.975 73.1724C298.675 70.9277 298.388 68.5629 299.238 66.464C300.089 64.3651 302.507 62.7189 304.62 63.5363C306.655 64.324 307.699 67.0193 309.868 67.2662C312.76 67.5956 313.902 63.322 312.693 60.673C311.485 58.0241 309.093 55.8061 308.893 52.9015C308.759 50.9419 309.504 48.5116 307.939 47.325C307.382 46.9687 306.75 46.747 306.092 46.6774L267.008 39.4853C264.687 39.0582 261.334 39.3855 261.231 41.7431C261.174 43.0591 262.349 44.361 261.829 45.571C261.273 46.8624 259.447 46.7443 258.118 47.2011C256.055 47.9098 255.019 50.3595 255.218 52.5319C255.58 54.6905 256.416 56.742 257.666 58.5394C255.123 57.4762 251.274 57.2808 248.732 56.2177Z" fill="white"/>
<path d="M217.547 23.0403C215.082 22.2247 212.427 22.1867 209.94 22.9314C207.453 23.6762 205.255 25.1678 203.644 27.2038C203.001 28.0511 202.46 29.2192 202.999 30.1367C203.772 31.4521 205.74 30.9325 207.191 30.462C209.323 29.7 211.645 29.6447 213.811 30.3041C215.174 30.7719 216.393 31.5986 217.761 32.0488C218.428 32.3274 219.157 32.4194 219.871 32.315C220.586 32.2106 221.259 31.9137 221.817 31.4561C222.756 30.4982 222.815 29.0091 222.817 27.6676C222.882 27.2187 222.846 26.761 222.712 26.3277C222.577 25.8945 222.348 25.4967 222.04 25.1634C221.493 24.8462 220.877 24.6641 220.245 24.6323C218.829 24.3703 217.549 23.6223 216.625 22.5175" fill="white"/>
<path d="M231.64 19.1161C231.088 19.0861 230.538 19.1984 230.043 19.4424C229.547 19.6864 229.123 20.0537 228.81 20.5091C228.498 20.9646 228.307 21.4928 228.258 22.0429C228.209 22.593 228.302 23.1466 228.528 23.6505C230.222 24.1124 231.991 24.2278 233.731 23.9897C234.599 23.855 235.407 23.4665 236.054 22.8732C236.701 22.2798 237.158 21.5082 237.368 20.6555C235.32 21.0282 233.206 20.6245 231.44 19.5233" fill="white"/>
<path d="M278.923 12.5634C274.313 13.5436 269.834 15.0649 265.581 17.0957C267.586 17.8665 269.29 19.2609 270.443 21.0736C271.596 22.8864 272.136 25.0214 271.983 27.1642C271.803 27.9868 271.824 28.8407 272.044 29.6535C272.534 30.8415 273.954 31.2872 275.202 31.5921C277.445 32.2747 279.787 32.5736 282.129 32.4762C283.301 32.4149 284.439 32.0624 285.44 31.4507C286.441 30.8389 287.274 29.9871 287.863 28.9724C288.202 28.0094 288.601 27.0681 289.055 26.1538C292.048 21.5968 300.937 27.1069 304.149 22.7025C305.281 21.151 305.177 18.8155 306.653 17.5861C307.416 17.0504 308.3 16.7129 309.226 16.6039C315.687 15.3204 322.213 14.3909 328.775 13.8198C331.884 13.5492 335.936 12.4328 335.962 9.31196C324.251 7.01193 312.108 8.6455 301.421 13.9587C297.571 15.8872 292.478 19.944 288.769 17.3872C287.38 16.4299 287.449 13.8521 285.538 12.7757C283.584 11.6751 280.997 12.1227 278.923 12.5634Z" fill="white"/>
<path d="M317.222 19.7252L322.719 20.7815C321.707 20.7367 320.698 20.9082 319.757 21.2846C318.817 21.6609 317.967 22.2335 317.266 22.9641C316.564 23.6948 316.027 24.5666 315.689 25.5215C315.351 26.4764 315.22 27.4923 315.306 28.5016C320.454 30.2214 326.067 28.5479 331.49 28.7765C336.913 29.0051 343.222 32.8788 342.297 38.227C342.017 39.8442 341.082 41.4602 341.568 43.0278C341.909 44.1266 342.878 44.9062 343.425 45.9181C344.564 48.0268 343.654 50.694 342.214 52.6109C340.775 54.5278 338.841 56.0572 337.578 58.0943C334.436 63.1609 336.221 69.7109 338.092 75.3712C338.633 77.5099 339.633 79.5056 341.021 81.2201C343.794 84.1683 348.313 84.4247 352.36 84.4837C355.305 84.5267 358.679 84.3812 360.542 82.0991C362.974 79.1197 361.273 74.4712 362.874 70.9744C364.328 67.7987 368.033 66.4363 371.389 65.47C377.539 63.6997 383.805 62.1948 389.618 59.5208C396.837 56.2005 403.583 51.0261 411.518 50.5987C413.744 50.4788 416.025 50.7415 418.169 50.1317C420.313 49.5218 422.35 47.6681 422.187 45.4448C422.049 43.5452 420.441 42.1503 419.186 40.7183C417.93 39.2863 416.944 37.0843 418.098 35.5693L438.894 31.6848C437.42 27.6674 436.272 22.3763 439.659 19.7613C440.882 18.8178 442.518 18.4407 443.559 17.3001C445.332 15.356 444.44 12.0071 442.393 10.3537C440.346 8.70035 437.577 8.31654 434.955 8.0987C425.836 7.34138 416.665 7.8418 407.528 8.34261C389.668 9.32158 371.808 10.3006 353.949 11.2795C350.353 11.4766 346.202 11.1755 342.905 12.4021C340.113 13.4405 338.128 15.3467 334.936 16.0164C329.042 17.2528 322.555 16.4161 317.222 19.7252Z" fill="white"/>
<path d="M415.706 63.1783C415.146 63.0897 414.573 63.2196 414.106 63.5413C413.797 63.8814 413.614 64.3166 413.585 64.7752C413.23 66.799 413.653 68.8821 414.769 70.6075C415.337 71.4539 416.122 72.1327 417.041 72.5735C417.961 73.0142 418.981 73.2008 419.997 73.114C422.472 72.7983 424.297 70.6865 426.572 69.656C430.08 68.0692 444.975 65.5955 434.671 60.0288C431.12 58.1103 428.826 59.8038 426.027 61.0673C422.843 62.6963 419.275 63.4262 415.706 63.1783V63.1783Z" fill="white"/>
<path d="M505.956 16.5826C504.753 17.0741 503.747 17.9503 503.094 19.0742C502.793 19.6449 502.723 20.3094 502.899 20.9301C503.074 21.5509 503.482 22.0804 504.037 22.4092C504.486 22.5722 504.962 22.6477 505.44 22.6319L510.332 22.778C512.411 22.8401 515.007 23.2827 515.565 25.2855C515.98 26.7727 515.052 28.6836 516.172 29.7464C516.652 30.1186 517.23 30.344 517.836 30.3955C519.447 30.8095 521.13 30.8638 522.765 30.5546C526.325 29.5998 524.454 27.4273 525.575 25.4928C527.291 22.533 526.994 24.3247 530.016 22.6284C532.248 21.3756 535.133 19.1031 533.27 15.9101C530.03 10.3576 510.737 14.1973 505.956 16.5826Z" fill="white"/>
<path d="M602.515 13.7913L599.674 14.1704C593.269 15.0252 586.826 15.8879 580.657 17.8116C583.327 18.8675 586.129 19.5551 588.985 19.8553C590.558 19.9324 592.119 20.1544 593.651 20.5185C596.376 21.3298 599.122 23.4246 601.755 22.3515C603.387 21.6861 603.92 19.9865 605.272 19.0857C606.206 18.4637 609.747 17.4569 610.143 16.8291C613.344 11.7538 604.975 13.463 602.515 13.7913Z" fill="white"/>
<path d="M614.989 26.7021C611.195 28.8239 607.674 31.4021 604.506 34.3793C603.171 35.634 601.808 37.1945 601.929 39.0223C602.09 41.4517 604.678 42.8609 606.92 43.8101L616.001 47.6549C617.103 46.1022 616.094 43.9587 614.956 42.4328C613.817 40.9069 612.464 39.1415 612.967 37.3053C613.541 35.2098 616.096 34.4958 618.239 34.1348C621.729 33.5466 631.146 33.5938 630.015 27.9681C628.681 21.3393 618.493 24.7435 614.989 26.7021Z" fill="white"/>
<path d="M613.163 401.829C612.298 404.332 612.216 407.28 613.712 409.466C615.39 411.918 618.748 412.832 621.654 412.21C624.547 411.44 627.126 409.782 629.027 407.469C630.766 405.531 632.197 403.338 633.269 400.965C634.765 397.268 635.82 393.407 636.412 389.463L639.232 374.659C639.862 371.35 639.837 361.207 633.756 364.512C632.095 365.414 628.249 372.543 626.508 374.564C623.37 378.208 622.955 381.743 621.303 386.156C619.234 391.685 615.076 396.292 613.163 401.829Z" fill="white"/>
<path d="M934.345 477.587C932.355 476.81 930.424 475.891 928.567 474.836C926.704 479.956 925.714 485.353 925.637 490.801L939.253 483.096C941.301 481.937 943.623 480.327 943.579 477.974C943.597 477.683 943.537 477.393 943.405 477.133C943.272 476.874 943.072 476.655 942.826 476.5C942.524 476.379 942.194 476.34 941.872 476.388C939.853 476.556 938.012 477.55 936.107 478.241C934.203 478.931 931.975 479.297 930.228 478.271" fill="white"/>
<path d="M1006.17 482.161C1004.68 482.567 1003.22 483.091 1001.81 483.727C998.681 485.317 996.555 488.337 993.743 490.431C991.053 492.435 987.814 493.535 984.634 494.605C983.698 495.431 984.128 497.097 985.144 497.823C986.235 498.444 987.487 498.725 988.74 498.631C992.043 498.704 995.523 498.736 998.417 497.14C1000.05 496.083 1001.57 494.872 1002.97 493.524C1006.36 490.702 1010.42 488.839 1014.44 487.039C1015.9 486.487 1017.26 485.677 1018.44 484.65C1020.96 482.16 1021.14 478.319 1017.5 477.471C1014.55 476.787 1008.98 481.254 1006.17 482.161Z" fill="white"/>
<path d="M1037.91 461.431C1038.07 459.717 1037.84 457.99 1037.24 456.377C1036.64 454.765 1035.68 453.311 1034.43 452.124C1034.4 455.552 1034.29 459.203 1032.36 462.038C1030.99 464.057 1028.84 465.421 1027.33 467.345C1025.83 469.269 1025.16 472.318 1026.92 474.006C1028.05 474.865 1029.43 475.338 1030.84 475.356C1034.36 475.77 1038.42 476 1040.89 473.462C1042.23 472.076 1042.89 470.024 1044.53 469.005C1045.14 468.749 1045.69 468.358 1046.13 467.863C1046.8 466.786 1045.73 465.367 1044.52 464.979C1043.3 464.591 1041.97 464.773 1040.75 464.404C1039.53 464.036 1038.42 462.667 1039.04 461.559" fill="white"/>
<path d="M981.503 335.759C979.659 336.207 977.75 336.32 975.867 336.091C972.739 335.516 970.304 333.159 967.779 331.225C961.775 326.654 954.477 324.104 946.933 323.942C940.071 323.812 933.144 325.672 926.404 324.375C926.844 326.824 928.94 328.661 931.176 329.753C933.413 330.845 935.881 331.394 938.128 332.464C941.726 334.194 944.58 337.163 946.167 340.827C946.89 342.516 947.346 344.355 948.442 345.83C950.683 348.845 954.93 349.507 958.678 349.26C963.564 348.939 968.668 347.533 973.215 349.354C976.692 350.747 979.182 353.791 982.086 356.158C984.99 358.525 989.08 360.281 992.414 358.573C988.951 357.452 985.936 355.253 983.811 352.297C981.685 349.341 980.56 345.784 980.6 342.143C983.87 342.444 993.29 342.328 992.783 336.771C992.353 332.061 984.311 335.251 981.503 335.759Z" fill="white"/>
<path d="M938.72 374.076C939.3 370.891 942.476 368.079 941.487 364.996C940.803 362.864 938.331 361.812 936.093 361.759C933.855 361.707 931.656 362.374 929.418 362.436C927.961 362.359 926.501 362.38 925.047 362.498C920.605 363.229 917.867 367.885 913.68 369.541C911.134 370.547 908.275 370.355 905.627 371.051C899.617 372.631 895.814 378.31 891.613 382.888C884.825 390.254 875.982 395.411 866.229 397.692C862.812 398.483 859.139 398.989 856.423 401.209C852.826 404.148 851.94 409.186 851.14 413.761C848.929 426.397 845.551 438.801 841.047 450.812L855.318 452.634C858.031 452.98 860.842 453.319 863.457 452.516C865.356 451.799 867.155 450.841 868.81 449.664C875.165 445.718 882.279 443.151 889.689 442.128C893.426 441.615 897.344 441.521 900.851 442.91C904.358 444.299 907.367 447.449 907.661 451.209C909.177 450.737 910.793 450.686 912.337 451.062C913.88 451.437 915.292 452.225 916.423 453.34C918.657 455.617 920.121 458.538 920.606 461.691C920.982 463.644 921.358 465.983 923.17 466.802C924.648 467.47 926.343 466.75 927.96 466.621C933.446 466.182 937.999 472.579 943.392 471.478C949.175 470.296 950.595 461.635 956.238 459.9C959.478 458.903 964.024 460.115 965.575 457.101C966.943 454.444 964.214 451.378 964.496 448.403C964.842 444.74 969.163 443.185 972.494 441.622C983.978 436.233 989.428 420.777 983.863 409.377C980.566 402.623 974.078 397.306 972.88 389.886C971.958 384.178 974.208 377.521 970.569 373.027C968.717 370.741 965.582 369.479 964.48 366.752C963.787 365.035 964.066 363.087 963.692 361.273C963.319 359.46 961.737 357.562 959.946 358.033C954.747 359.397 953.088 375.457 950.305 379.36C946.073 385.291 937.387 381.384 938.72 374.076Z" fill="white"/>
<path d="M842.625 341.827C840.849 341.329 838.909 340.838 837.207 341.55C835.504 342.262 834.51 344.762 835.876 346.002C846.565 345.585 857.319 345.172 867.916 346.623C880.127 348.296 892.21 352.438 904.474 351.22C897.469 349.153 890.348 347.501 883.148 346.271L871.142 343.978C867.921 343.303 864.667 342.8 861.393 342.471C854.544 341.906 849.36 343.716 842.625 341.827Z" fill="white"/>
<path d="M853.326 304.602C852.438 304.528 851.339 304.464 850.88 305.227C850.442 305.956 850.944 306.919 850.708 307.736C850.386 308.853 848.923 309.138 847.771 308.986C846.619 308.834 845.373 308.47 844.352 309.026C843.834 309.379 843.445 309.891 843.243 310.485C843.041 311.078 843.037 311.721 843.231 312.317C843.649 313.501 844.324 314.577 845.208 315.468C846.717 317.37 848.438 319.096 850.335 320.611C854.009 323.323 858.986 324.629 861.3 328.566C861.626 329.329 862.128 330.004 862.764 330.537C863.875 331.24 865.323 330.705 866.519 330.159L870.711 328.243C871.466 327.971 872.14 327.513 872.671 326.91C873.628 325.611 873.04 323.763 872.236 322.363C871.433 320.963 870.404 319.515 870.576 317.91C870.884 315.048 874.563 313.953 876.076 311.505C877.601 309.037 876.608 305.857 876.784 302.961C876.99 299.574 879.118 295.169 875.694 292.638C872.784 290.488 870.003 292.475 867.914 294.849C863.508 299.856 861.425 305.278 853.326 304.602Z" fill="white"/>
<path d="M878.771 253.998C880.203 256.739 883.186 258.374 884.747 261.042C886.438 263.935 886.246 267.672 888.081 270.476C889.964 273.353 893.753 274.88 894.808 278.151C895.961 281.723 893.346 286.065 895.431 289.186C895.819 289.696 896.31 290.12 896.871 290.43C897.432 290.741 898.052 290.932 898.691 290.991C899.329 291.049 899.973 290.975 900.582 290.771C901.19 290.568 901.75 290.241 902.225 289.81C903.104 288.853 903.574 287.59 903.536 286.291C903.498 284.993 902.953 283.76 902.019 282.857C900.785 281.731 899.012 281.245 897.982 279.93C897.445 279.171 897.087 278.301 896.936 277.384C896.374 274.739 896.464 271.997 897.198 269.395C897.474 268.734 897.544 268.006 897.399 267.305C896.935 265.956 895.109 265.86 893.827 265.235C890.916 263.814 890.987 259.705 891.495 256.506C891.157 258.636 883.569 255.013 882.775 253.807C881.196 251.41 882.055 246.786 881.743 244.138C878.336 245.78 877.022 250.648 878.771 253.998Z" fill="white"/>
<path d="M802.335 296.161C800.934 294.593 798.825 292.953 796.947 293.899C795.515 294.62 795.121 296.602 795.682 298.104C796.366 299.563 797.419 300.819 798.737 301.746C802.65 304.973 806.863 307.885 810.276 311.636C816.385 318.349 819.62 327.406 826.264 333.59C827.599 335.024 829.367 335.981 831.298 336.315C833.233 336.495 835.406 335.256 835.629 333.325C835.812 331.734 834.703 330.311 833.619 329.132C831.039 326.325 828.214 323.741 825.778 320.808C824.652 319.682 823.945 318.205 823.773 316.622C823.761 315.043 825.201 313.39 826.731 313.781C824.87 313.306 823.49 310.205 820.759 309.623C818.476 309.136 817.924 310.549 815.208 309.384C810.027 307.162 805.963 300.222 802.335 296.161Z" fill="white"/>
<path d="M924.067 143.513C922.581 143.072 921.12 142.55 919.69 141.95C915.843 140.795 910.754 143.623 911.267 147.606C911.607 150.252 914.07 152.037 915.431 154.332C917.448 157.737 916.91 162.055 915.85 165.867C915.59 167.048 915.095 168.164 914.395 169.149C913.416 170.19 912.245 171.032 910.948 171.629C905.753 174.542 901.172 178.434 897.458 183.089C897.054 183.519 896.773 184.049 896.643 184.625C896.46 185.97 897.812 186.95 898.576 188.071C900.274 190.563 899.046 193.916 899.214 196.926C899.189 197.352 899.272 197.777 899.456 198.162C899.641 198.546 899.921 198.877 900.269 199.123C901.293 199.643 902.505 198.76 903.06 197.755C904.9 194.42 903.514 189.067 906.967 187.46C907.62 187.155 908.412 187.027 908.847 186.453C909.539 185.543 908.872 184.196 909.222 183.108C909.748 181.474 911.982 181.401 913.697 181.473C916.65 181.597 919.603 181.204 922.421 180.312C923.527 180.049 924.531 179.467 925.309 178.639C926.341 177.351 926.25 175.52 926.043 173.882C925.01 165.717 922.424 157.825 918.424 150.632C921.457 151.02 924.757 151.355 927.374 149.774C928.84 148.889 930.598 146.242 929.871 144.441C928.721 141.591 926.645 143.99 924.067 143.513Z" fill="white"/>
<path d="M535.218 188.42C535.581 190.367 535.937 192.417 535.299 194.291C534.661 196.166 532.654 197.733 530.759 197.158C529.288 196.712 528.439 195.234 527.394 194.106C521.586 187.836 508.482 191.466 504.894 183.709C503.43 180.543 504.425 176.75 503.426 173.408C502.796 171.476 501.542 169.808 499.862 168.667C498.181 167.525 496.169 166.974 494.141 167.1C492.291 167.367 490.491 167.904 488.798 168.695C477.453 173.238 465.544 176.217 453.396 177.549C451.088 177.69 448.804 178.105 446.594 178.787C441.606 180.595 438.198 185.219 435.773 189.938C433.348 194.656 431.557 199.765 428.306 203.957C424.888 208.363 420.099 211.448 415.632 214.785C413.912 215.894 412.479 217.396 411.452 219.167C410.483 221.155 410.538 223.468 410.613 225.678L411.526 252.522C411.644 255.974 411.791 259.551 413.336 262.64C415.266 266.499 419.078 269.026 421.723 272.434C424.422 275.937 425.827 280.265 425.702 284.685C425.646 286.462 425.47 288.564 426.854 289.68C427.696 290.226 428.681 290.509 429.684 290.494L465.996 293.466C472.383 293.989 479.462 294.848 483.632 299.715C485.6 302.011 487.181 305.314 490.196 305.561C491.489 305.666 492.747 305.136 494.041 305.033C497.304 304.775 500.17 307.251 501.979 309.979C504.717 314.137 505.96 319.102 505.504 324.06C505.207 327.171 504.242 330.197 504.034 333.316C503.243 345.183 513.304 355.494 513.499 367.387C513.613 374.382 510.293 380.918 507.055 387.12C512.28 395.036 508.001 405.577 510.082 414.831C512.055 423.611 519.376 430.484 521.2 439.296C522.035 443.33 522.083 448.294 525.641 450.372C527.201 451.133 528.932 451.479 530.665 451.378C541.121 451.502 551.458 449.149 560.83 444.511C565.229 442.328 569.788 439.069 570.556 434.219C571.175 430.308 569.192 425.933 571.21 422.526C573.589 418.511 579.684 418.83 583.184 415.742C588.863 410.734 584.435 401.183 586.735 393.969C588.804 387.485 595.923 384.04 599.452 378.221C600.84 375.718 601.837 373.017 602.407 370.212C604.023 363.508 605.03 356.671 605.413 349.786C605.507 345.602 605.816 341.426 606.337 337.274C610.142 313.636 633.511 297.808 641.098 275.1C641.822 272.931 642.163 270.043 640.233 268.816C639.089 268.27 637.792 268.134 636.559 268.431L619.82 270.542C617.741 270.804 615.537 271.049 613.628 270.185C611.719 269.322 610.35 266.906 611.363 265.072C614.206 259.922 608.358 253.414 605.76 248.137C598.763 233.926 590.43 220.413 580.875 207.78C580.264 207.13 579.881 206.299 579.784 205.411L584.535 205.57C582.931 199.815 580.285 193.518 574.694 191.413C571.544 190.227 568.055 190.637 564.694 190.821C555.067 191.347 544.746 189.893 535.218 188.42Z" fill="white"/>
<path d="M564.702 58.7447C567.221 61.42 570.044 64.2564 573.689 64.7227C580.127 65.5464 584.756 58.8889 587.703 53.1061C587.812 54.5804 588.492 55.9539 589.598 56.9346C590.705 57.9152 592.15 58.4257 593.626 58.3573C595.215 58.09 596.732 57.497 598.081 56.6156C610.837 49.6448 625.124 45.9514 639.66 45.8671C639.521 44.766 639.794 43.6522 640.427 42.7406C641.06 41.829 642.009 41.1843 643.089 40.9308C646.045 40.3448 648.707 42.9 650.133 45.5543C651.558 48.2086 652.447 51.2851 654.712 53.2719C656.977 55.2586 661.363 55.1721 662.257 52.2951C663.116 49.533 660.239 47.1775 657.848 45.549C655.458 43.9206 652.938 40.9066 654.548 38.5035C666.761 35.8 679.05 33.0862 691.547 32.5488C693.675 32.6229 695.795 32.2577 697.776 31.476C699.682 30.5407 701.196 28.4177 700.684 26.3574C697.957 26.9985 695.1 26.8129 692.479 25.8242C689.858 24.8354 687.59 23.0884 685.966 20.8059C703.307 19.3749 721.751 18.1551 737.119 26.3148C738.963 30.2738 729.564 33.5677 732.079 37.1385C732.881 38.2773 734.488 38.4109 735.88 38.4368C746.56 38.635 757.301 38.8295 767.86 37.2171C771.719 36.6279 775.616 35.7961 779.49 36.2739C785.943 37.0697 791.462 41.3752 797.81 42.7789C800.394 43.3503 803.291 43.3696 805.469 41.8668C807.647 40.364 808.584 36.942 806.799 34.9884C812.776 29.1302 822.696 30.5821 830.581 33.3867C838.467 36.1913 845.937 40.7142 854.283 41.3393C860.267 41.7876 866.335 40.1778 872.249 41.201C875.965 41.844 879.424 43.4972 883.056 44.5129C889.925 46.4339 897.192 46.0284 904.324 46.1208C922.522 46.366 940.521 49.9426 957.43 56.6734C959.63 57.3895 961.645 58.5803 963.334 60.1614C964.907 61.8462 965.709 64.4644 964.652 66.5128L947.179 63.9598C948.825 67.2006 953.084 67.7529 956.543 68.8709C960.002 69.9889 963.588 73.8085 961.509 76.7905C957.762 75.5972 954.366 79.344 952.473 82.7914C950.58 86.2388 948.273 90.3674 944.345 90.5774C940.829 90.7655 936.575 87.771 934.283 90.4446C937.45 94.4398 940.162 98.7754 942.368 103.371C944.633 108.089 946.246 114.034 943.185 118.279C942.704 119.037 941.973 119.604 941.119 119.881C938.619 120.514 936.995 117.456 935.202 115.602C932.943 113.267 929.527 112.605 926.467 111.509C923.408 110.414 920.185 108.259 919.946 105.018C919.797 103.002 920.862 101.128 921.646 99.2641C922.964 96.123 923.54 92.7204 923.33 89.3205C923.158 86.5853 922.392 83.74 920.427 81.8289C918.463 79.9177 915.071 79.3115 912.962 81.0619C911.978 81.8786 911.19 83.185 909.912 83.2339C907.654 83.3202 905.921 79.3839 904.104 80.7276C904.317 82.1593 904.02 83.6204 903.265 84.8555C897.845 89.5699 889.517 87.5754 882.529 89.2408C879.206 90.1918 876.025 91.5812 873.069 93.3724C871.963 93.8452 871.022 94.6351 870.364 95.6422C869.492 97.3373 870.454 99.5084 871.991 100.636C873.622 101.636 875.454 102.261 877.356 102.467C885.875 104.08 894.519 106.578 901.245 112.05C907.972 117.522 912.382 126.568 910.254 134.974L893.453 118.92C894.091 125.661 894.453 132.42 894.539 139.197C894.648 140.521 894.466 141.852 894.007 143.098C892.809 145.743 889.563 146.633 886.718 147.217C885.927 147.368 885.177 147.684 884.516 148.145C883.856 148.606 883.3 149.201 882.887 149.892C882.473 150.583 882.21 151.353 882.115 152.153C882.02 152.953 882.095 153.764 882.336 154.532C883.346 157.826 885.866 160.395 888.174 162.954C890.481 165.513 892.752 168.422 893.054 171.854C893.356 175.287 890.766 179.156 887.329 178.917C884.723 178.737 882.789 176.404 881.678 174.04C880.566 171.676 879.905 169.042 878.235 167.034C873.18 160.954 861.826 163.559 857.297 157.078C856.143 158.387 855.343 159.97 854.972 161.676C854.601 163.381 854.673 165.153 855.18 166.824C857.286 165.505 860.17 166.73 861.753 168.647C863.336 170.563 864.083 173.02 865.326 175.172C867.003 178.076 869.673 180.651 869.907 183.997C869.845 185.262 869.866 186.53 869.971 187.792C870.386 189.819 872.1 191.275 873.288 192.969C876.052 196.912 875.916 202.328 874.134 206.802C872.352 211.275 869.151 215.013 865.981 218.638C860.443 224.968 854.792 231.26 848.227 236.517C846.354 238.017 844.354 239.492 843.188 241.589C842.021 243.686 841.961 246.63 843.754 248.225C842.471 248.289 840.17 248.92 838.888 248.984C838.436 243.838 838.338 238.667 838.594 233.507C833.531 231.076 828.081 237.586 828.734 243.164C829.387 248.742 833.421 253.218 836.294 258.044C838.394 261.573 839.955 265.688 839.254 269.735C838.553 273.781 834.941 277.514 830.849 277.157C824.342 276.589 821.62 267.247 815.175 266.178C814.607 266.044 814.01 266.104 813.479 266.346C812.523 266.871 812.357 268.151 812.303 269.241C812.039 274.59 811.811 280.152 813.899 285.084C816.954 292.299 824.846 298.358 823.19 306.017C814.272 301.871 809.636 291.87 807.53 282.264C805.425 272.658 805.074 262.573 801.301 253.492C798.435 257.165 792.412 254.128 789.794 250.275C787.312 246.622 785.784 242.397 783.375 238.695C780.967 234.993 777.278 231.678 772.867 231.474C768.241 231.261 764.229 234.435 760.702 237.434C757.801 239.9 754.822 242.464 753.127 245.873C750.659 250.834 751.305 256.682 751.186 262.221C751.057 268.21 749.788 274.528 745.706 278.913C741.625 283.297 734.091 284.824 729.589 280.873C727.239 278.81 726.101 275.728 725.087 272.769C720.201 258.509 716.132 243.982 712.899 229.258C712.143 232.619 709.192 236.95 706.373 234.971C705.74 234.439 705.228 233.778 704.869 233.034C699.611 224.121 689.873 218.776 680.034 215.57C670.195 212.365 659.844 210.87 650.114 207.348C644.661 205.373 639.453 202.779 634.593 199.616C633.353 201.437 632.63 203.559 632.499 205.757C632.367 207.955 632.833 210.148 633.847 212.103C636.005 215.925 640.889 218.136 645.07 216.8C647.23 216.11 649.055 214.61 651.198 213.869C653.342 213.128 656.219 213.492 657.157 215.557C658.054 217.534 656.698 219.926 657.37 221.99C658.395 225.133 663.136 225.376 664.794 228.236C666.028 230.365 665.013 233.191 663.252 234.909C661.49 236.626 659.14 237.568 656.99 238.764C650.014 242.643 645.053 249.265 638.956 254.418C632.86 259.57 624.258 263.331 616.992 260.027C618.724 251.256 608.277 244.818 606.355 236.087C605.722 233.214 606.05 230.161 605.147 227.361C603.839 223.306 600.242 220.519 597.291 217.446C593.712 213.679 590.924 209.233 589.091 204.371C587.258 199.508 586.417 194.328 586.619 189.136C586.778 185.528 587.441 181.861 586.619 178.344C585.797 174.827 582.885 171.423 579.277 171.582C571.036 171.946 560.654 172.559 556.33 165.534C554.787 163.027 554.115 159.355 556.347 157.434C557.92 156.078 560.244 156.206 562.311 156.409L580.879 158.236C585.222 158.663 589.916 159.016 593.643 156.745C597.37 154.475 598.985 148.448 595.534 145.777C593.012 143.826 588.495 143.931 587.762 140.828C587.152 138.244 590.012 135.312 588.467 133.152C587.36 131.603 584.869 132.033 583.36 133.194C581.851 134.355 580.756 136.052 579.067 136.931C576.104 138.473 572.563 137.006 569.376 136.009C566.188 135.011 561.914 134.926 560.368 137.887C558.639 141.198 561.902 145.537 560.186 148.855C557.917 153.242 550.233 150.745 547.047 154.518C543.39 158.848 549.535 165.304 548.302 170.836C546.728 171.615 544.978 171.973 543.224 171.875C541.47 171.776 539.772 171.224 538.294 170.273C536.842 169.285 535.684 167.922 534.944 166.328C534.205 164.734 533.911 162.97 534.094 161.223C534.399 158.734 535.696 156.194 534.827 153.843C534.124 151.942 532.215 150.81 530.441 149.83L512.397 139.859C510.722 142.966 512.84 146.819 515.489 149.153C518.137 151.487 521.455 153.245 523.195 156.317C524.296 158.446 524.543 160.914 523.885 163.218C523.227 165.522 521.715 167.488 519.657 168.715C519.399 168.893 519.105 169.013 518.797 169.067C518.488 169.121 518.171 169.107 517.868 169.027C517.58 168.858 517.329 168.633 517.13 168.365C516.931 168.097 516.787 167.792 516.708 167.467C513.524 159.32 508.744 151.287 501.102 147.031C493.46 142.775 482.479 143.65 477.468 150.819C476.277 152.522 475.479 154.463 474.442 156.264C468.933 165.829 457.122 170.359 446.088 170.063C445.008 170.123 443.935 169.87 442.995 169.336C441.211 168.104 441.292 165.491 441.565 163.341L442.723 154.217C442.956 152.384 443.293 150.359 444.743 149.215C446.787 147.603 449.736 148.621 452.339 148.583C454.311 148.491 456.207 147.794 457.771 146.588C459.334 145.382 460.488 143.724 461.077 141.839C461.603 139.936 461.6 137.926 461.067 136.025C460.535 134.124 459.494 132.404 458.057 131.05C456.863 129.93 455.262 128.522 455.892 127.011C456.144 126.593 456.484 126.235 456.888 125.963C457.293 125.691 457.752 125.51 458.234 125.434C462.91 124.076 467.851 123.72 472.449 122.118C477.047 120.516 481.506 117.238 482.595 112.492C482.929 111.038 483.081 109.276 484.387 108.555C485.043 108.278 485.747 108.134 486.458 108.131C488.951 107.777 491.221 106.502 492.821 104.557C494.421 102.613 495.235 100.14 495.102 97.6257C497.306 96.0859 500.393 97.2186 502.525 98.8563C504.657 100.494 506.539 102.658 509.133 103.364C513.967 104.679 518.639 100.399 523.649 100.379C525.756 100.371 527.937 101.116 529.919 100.402C531.928 99.6777 533.128 97.6775 534.67 96.1998C536.212 94.7221 538.918 93.8208 540.342 95.4127L539.13 86.4307C541.572 87.0476 544.118 87.1349 546.596 86.6868C549.075 86.2387 551.429 85.2655 553.5 83.8326L537.828 78.5372C537.283 78.401 536.779 78.1318 536.363 77.7537C535.223 76.5268 536.355 74.6149 537.282 73.2202C539.498 69.8838 539.87 64.3879 536.225 62.7268C533.737 61.5931 530.882 62.954 528.494 64.2855L517.055 70.6634C516.692 72.8377 519.351 74.0699 520.998 75.5345C521.995 76.4206 522.7 77.5875 523.022 78.8819C523.344 80.1763 523.266 81.5377 522.8 82.7872C522.333 84.0368 521.5 85.1161 520.409 85.8833C519.318 86.6506 518.021 87.0699 516.687 87.0863C517.44 88.0655 517.964 89.2017 518.218 90.4106C518.473 91.6196 518.452 92.8703 518.158 94.0702L510.462 94.6238C509.598 94.7975 508.701 94.6224 507.966 94.1365C507.143 93.4055 507.254 92.1244 507.063 91.0402C506.603 88.4233 504.041 86.5891 501.425 86.1188C498.81 85.6486 496.135 86.2514 493.545 86.8466C492.446 87.2423 491.238 87.2144 490.158 86.7684C489.539 86.366 489.068 85.772 488.818 85.077C487.683 82.3242 488.744 79.0886 490.567 76.7345C492.391 74.3804 494.887 72.6595 497.129 70.6997C502.49 65.9959 506.428 59.8867 508.5 53.0621C512.737 51.287 517.123 48.8751 521.36 47.1C527.892 43.7929 535.217 42.3736 542.511 43.0019L556.859 43.2759C561.107 43.3571 565.47 43.461 569.398 45.0805C573.326 46.7 576.777 50.2028 577.049 54.4429C577.13 54.9229 577.089 55.4158 576.928 55.8754C576.767 56.335 576.492 56.7462 576.129 57.0703C575.574 57.3731 574.946 57.5147 574.315 57.4792C570.353 57.6184 568.664 58.6055 564.702 58.7447Z" fill="white"/>
<path d="M450.339 103.712C450.899 103.182 451.303 102.507 451.505 101.762C451.707 101.017 451.699 100.231 451.484 99.4895C450.119 98.9631 448.636 98.828 447.199 99.0993C445.762 99.3706 444.43 100.038 443.352 101.025C442.502 101.885 441.769 102.853 441.173 103.905C439.288 106.981 437.62 110.655 438.713 114.094C438.802 114.469 438.965 114.822 439.192 115.133C439.42 115.444 439.707 115.707 440.037 115.906C440.527 116.102 441.055 116.185 441.581 116.147C443.658 116.145 445.733 116.017 447.795 115.765C449.061 115.61 450.532 115.253 451.021 114.075C451.664 112.526 450.107 110.774 450.561 109.16C450.86 108.438 451.312 107.79 451.887 107.261C452.172 106.995 452.391 106.666 452.527 106.3C452.663 105.934 452.711 105.542 452.669 105.154C452.486 104.397 451.326 103.967 450.909 104.625" fill="white"/>
<path d="M461.109 89.7485C459.264 89.3249 457.362 89.2054 455.478 89.3949C455.062 89.3825 454.649 89.4763 454.278 89.6676C453.92 89.9322 453.659 90.309 453.539 90.7383C453.141 92.0152 453.239 93.3951 453.813 94.6031C454.387 95.8111 455.395 96.7587 456.636 97.2569C457.312 97.4124 457.96 97.6728 458.556 98.0286C460.149 99.2642 459.134 101.79 459.435 103.783C459.774 106.021 461.94 107.899 461.543 110.127C461.23 111.883 459.355 113.273 459.657 115.03C459.973 116.871 462.309 117.424 464.17 117.572C465.249 117.761 466.36 117.633 467.368 117.205C468.379 116.514 469.098 115.473 469.386 114.283C470.148 112.014 470.468 109.621 470.329 107.231C470.321 106.144 470.048 105.076 469.534 104.119C468.974 103.36 468.352 102.648 467.676 101.991C464.109 97.8416 467.865 91.6525 461.109 89.7485Z" fill="white"/>
<path opacity="0.8" d="M930.171 414.784C930.171 414.784 656.969 257.961 539.352 287.675C539.352 287.675 290.087 314.5 261.199 373.515C261.199 373.515 181.962 125.9 153.074 117.646" stroke="#0076FF" stroke-width="2" stroke-miterlimit="10"/>
<path opacity="0.8" d="M261.199 373.515C307.007 251.359 719.698 115.996 719.698 115.996C661.096 130.853 539.352 287.676 539.352 287.676C539.352 287.676 281.833 100.314 153.074 117.647C153.074 117.647 720.111 136.218 930.171 414.784" stroke="#0076FF" stroke-width="2" stroke-miterlimit="10"/>
<path d="M153.074 129.615C159.683 129.615 165.042 124.257 165.042 117.647C165.042 111.037 159.683 105.679 153.074 105.679C146.464 105.679 141.105 111.037 141.105 117.647C141.105 124.257 146.464 129.615 153.074 129.615Z" fill="#0076FF"/>
<path d="M261.199 385.483C267.808 385.483 273.167 380.125 273.167 373.515C273.167 366.905 267.808 361.547 261.199 361.547C254.589 361.547 249.231 366.905 249.231 373.515C249.231 380.125 254.589 385.483 261.199 385.483Z" fill="#0076FF"/>
<path d="M719.698 127.964C726.308 127.964 731.666 122.606 731.666 115.996C731.666 109.387 726.308 104.028 719.698 104.028C713.088 104.028 707.73 109.387 707.73 115.996C707.73 122.606 713.088 127.964 719.698 127.964Z" fill="#0076FF"/>
<path d="M930.171 426.753C936.78 426.753 942.139 421.394 942.139 414.784C942.139 408.175 936.78 402.816 930.171 402.816C923.561 402.816 918.203 408.175 918.203 414.784C918.203 421.394 923.561 426.753 930.171 426.753Z" fill="#0076FF"/>
<path d="M539.352 299.643C545.962 299.643 551.32 294.285 551.32 287.675C551.32 281.065 545.962 275.707 539.352 275.707C532.742 275.707 527.384 281.065 527.384 287.675C527.384 294.285 532.742 299.643 539.352 299.643Z" fill="#0076FF"/>
</g>
</g>
<defs>
<clipPath id="clip0_118:42">
<rect width="1054" height="543" fill="white"/>
</clipPath>
<clipPath id="clip1_118:42">
<rect width="1176.61" height="873.979" fill="white" transform="translate(-61 -193)"/>
</clipPath>
</defs>
</svg>
